# xmcd
#
# Track frame offsets: 
#        150
#        23610
#        37016
#        61707
#        75775
#        89169
#        104015
#        118795
#        126957
#        146385
#        179865
#        194548
#        204420
#        224944
#        258431
#
# Disc length: 3583 seconds
#
# Revision: 0
# Processed by: cddbd v1.5.2PL0 Copyright (c) Steve Scherf et al.
# Submitted via: ExactAudioCopy v1.0b3
#
DISCID=e50dfd0f
DTITLE=Various Artist - Looking Towards The Sky
DYEAR=2010
DGENRE=Psychedelic Rock
TTITLE0=9.30 Fly - Life And Times
TTITLE1=The Dorians - Help For My Waiting
TTITLE2=Blonde On Blonde - Heart Without A Home
TTITLE3=Blue Beard - Losing You
TTITLE4=Rusty Harness - Goodbye
TTITLE5=Paddy Mcguire - Doin' The Best I Can
TTITLE6=Knocker Jungle - I Don't Know Why
TTITLE7=Knocker Jungle - Reality
TTITLE8=Blonde On Blonde - Sad Song For An Easy Lady
TTITLE9=9.30 Fly - Mr 509
TTITLE10=The Dorians - Good Love
TTITLE11=Davey Payne and The Medium Wave - Looking Towards The Sky
TTITLE12=Milt Matthews Inc - Disaster Area
TTITLE13=Blonde On Blonde - Circles
TTITLE14=Back Street Band - This Ain't The Road
EXTD=
EXTT0=
EXTT1=
EXTT2=
EXTT3=
EXTT4=
EXTT5=
EXTT6=
EXTT7=
EXTT8=
EXTT9=
EXTT10=
EXTT11=
EXTT12=
EXTT13=
EXTT14=
PLAYORDER=
